<svg xmlns="http://www.w3.org/2000/svg" xmlns:xlink="http://www.w3.org/1999/xlink" width="99.096" height="82.571" viewBox="0 0 99.096 82.571"><defs><clipPath id="a"><rect width="99.096" height="82.571" fill="none"/></clipPath></defs><g clip-path="url(#a)"><path d="M94.966,46.365H86.709c-.082,0-.159.019-.242.02a37.147,37.147,0,0,0-73.84,0c-.081,0-.159-.02-.24-.02H4.13a4.129,4.129,0,1,0,0,8.257h8.257a8.166,8.166,0,0,1,5.043,1.719,12.159,12.159,0,0,0,14.686,0,8.38,8.38,0,0,1,10.086,0,12.162,12.162,0,0,0,14.688,0,8.38,8.38,0,0,1,10.086,0,12.166,12.166,0,0,0,14.688,0,8.17,8.17,0,0,1,5.045-1.719h8.257a4.129,4.129,0,1,0,0-8.257M76.613,49.809a3.9,3.9,0,0,1-4.586,0,16.76,16.76,0,0,0-20.188,0,3.9,3.9,0,0,1-4.586,0,16.76,16.76,0,0,0-20.188,0,3.9,3.9,0,0,1-4.586,0,16.212,16.212,0,0,0-1.743-1.133,28.866,28.866,0,0,1,57.623,0,16.81,16.81,0,0,0-1.745,1.135" transform="translate(0 7.312)" fill="#212529"/><path d="M83.784,45.292a16.367,16.367,0,0,0-10.1,3.444,3.9,3.9,0,0,1-4.586,0,16.76,16.76,0,0,0-20.188,0,3.9,3.9,0,0,1-4.586,0,16.76,16.76,0,0,0-20.188,0,3.9,3.9,0,0,1-4.586,0A16.352,16.352,0,0,0,9.463,45.292a4.129,4.129,0,1,0,0,8.257,8.166,8.166,0,0,1,5.043,1.719,12.159,12.159,0,0,0,14.686,0,8.382,8.382,0,0,1,10.088,0,12.159,12.159,0,0,0,14.686,0,8.382,8.382,0,0,1,10.088,0,12.164,12.164,0,0,0,14.686,0,8.173,8.173,0,0,1,5.045-1.719,4.129,4.129,0,1,0,0-8.257" transform="translate(2.924 24.837)" fill="#212529"/><path d="M33.463,16.516a4.128,4.128,0,0,0,4.13-4.13V4.13a4.13,4.13,0,0,0-8.259,0v8.257a4.128,4.128,0,0,0,4.13,4.13" transform="translate(16.085 0)" fill="#e9c866"/><path d="M9.983,23.823a4.129,4.129,0,0,0,5.839-5.839L9.983,12.145a4.129,4.129,0,1,0-5.839,5.839Z" transform="translate(1.609 5.996)" fill="#e9c866"/><path d="M59.009,23.823l5.839-5.839a4.129,4.129,0,0,0-5.839-5.839L53.17,17.984a4.129,4.129,0,1,0,5.839,5.839" transform="translate(28.494 5.996)" fill="#e9c866"/></g></svg>