<svg xmlns="http://www.w3.org/2000/svg" xmlns:xlink="http://www.w3.org/1999/xlink" width="98.766" height="90.838" viewBox="0 0 98.766 90.838"><defs><clipPath id="a"><rect width="98.766" height="90.838" fill="none"/></clipPath></defs><g clip-path="url(#a)"><path d="M30.583,16.257H38.84A4.129,4.129,0,1,0,38.84,8H30.583a4.129,4.129,0,1,0,0,8.257" transform="translate(14.506 4.387)" fill="#e9c866"/><path d="M43.824,23.4a4.031,4.031,0,0,0-1.654-.963,4.018,4.018,0,0,0,.8-2.312A4.128,4.128,0,0,0,38.84,16H30.583a4.129,4.129,0,1,0,0,8.257h6.548L31.792,29.6a4.129,4.129,0,1,0,5.839,5.839l6.193-6.193a4.127,4.127,0,0,0,0-5.839" transform="translate(14.506 8.774)" fill="#e9c866"/><path d="M85.528,55.04,71.641,51.071a13.728,13.728,0,0,0,.2-1.558,13.953,13.953,0,0,0-5.266-11.189l-6.927-5.539a5.776,5.776,0,0,1-2.172-4.521V14.045A14.063,14.063,0,0,0,43.428,0h-.807A14.031,14.031,0,0,0,28.787,11.933c-.593.073-1.189.11-1.778.242l-8.916,1.982A18.143,18.143,0,0,0,3.8,31.972V44.291a10.348,10.348,0,0,1-.125,1.586L.3,66.907a18.65,18.65,0,0,0-.226,2.467L.006,72.162A18.246,18.246,0,0,0,18.25,90.837H80.516a18.249,18.249,0,0,0,5.012-35.8m-48.7-40.995a5.8,5.8,0,0,1,5.791-5.788h.807a5.8,5.8,0,0,1,5.789,5.788v14.22a13.984,13.984,0,0,0,5.271,10.967l6.927,5.54a5.788,5.788,0,1,1-7.318,8.97L38.916,41.092a5.767,5.767,0,0,1-2.086-4.448ZM12.057,44.291V31.972a9.934,9.934,0,0,1,7.827-9.755l8.689-1.932V36.644a14.011,14.011,0,0,0,5.052,10.791L48.81,60.088A13.79,13.79,0,0,0,68.2,58.674l15.066,4.3a10.02,10.02,0,0,1,6.918,7.214H28.157A20.635,20.635,0,0,0,10.741,53.961l1.092-6.787a18.731,18.731,0,0,0,.225-2.883M8.449,68.21l.985-6.124a12.339,12.339,0,0,1,10.12,8.106H8.313l.015-.619a9.945,9.945,0,0,1,.121-1.363M80.516,82.579H18.25a9.467,9.467,0,0,1-8.044-4.13H88.568a9.959,9.959,0,0,1-8.052,4.13" transform="translate(0 0)" fill="#212529"/></g></svg>