<svg xmlns="http://www.w3.org/2000/svg" xmlns:xlink="http://www.w3.org/1999/xlink" width="99.096" height="90.838" viewBox="0 0 99.096 90.838"><defs><clipPath id="a"><rect width="99.096" height="90.838" fill="none"/></clipPath></defs><g clip-path="url(#a)"><path d="M95.874,53.677a12.3,12.3,0,0,0-7.11-20.437L65.848,7.051A20.645,20.645,0,0,0,50.311,0H48.785A20.645,20.645,0,0,0,33.248,7.051L10.332,33.24a12.3,12.3,0,0,0-7.11,20.437,12.194,12.194,0,0,0,0,16.516A12.107,12.107,0,0,0,1.245,83.765,4.121,4.121,0,0,0,4.13,90.838H94.966a4.121,4.121,0,0,0,2.885-7.073,12.107,12.107,0,0,0-1.977-13.571,12.194,12.194,0,0,0,0-16.516M90.838,78.451a4.13,4.13,0,1,1-4.13-4.13,4.135,4.135,0,0,1,4.13,4.13M82.579,61.935a4.13,4.13,0,1,1,4.13,4.13,4.134,4.134,0,0,1-4.13-4.13m4.13-12.387a4.129,4.129,0,1,1,4.13-4.128,4.134,4.134,0,0,1-4.13,4.128M39.462,12.491a12.387,12.387,0,0,1,9.323-4.232h1.527a12.387,12.387,0,0,1,9.323,4.232L79.6,35.306a12.271,12.271,0,0,0-2.055,18.371,12.194,12.194,0,0,0,0,16.516,11.994,11.994,0,0,0-2.46,12.387H70.192V66.064A12.4,12.4,0,0,0,57.805,53.677H41.29A12.4,12.4,0,0,0,28.9,66.064V82.581h-4.89a12,12,0,0,0-2.462-12.387,12.194,12.194,0,0,0,0-16.516A12.271,12.271,0,0,0,19.5,35.306Zm22.473,70.09H37.161V66.064a4.135,4.135,0,0,1,4.13-4.13H57.805a4.135,4.135,0,0,1,4.13,4.13ZM8.257,78.451a4.13,4.13,0,1,1,4.13,4.13,4.135,4.135,0,0,1-4.13-4.13m0-16.516a4.13,4.13,0,1,1,4.13,4.13,4.134,4.134,0,0,1-4.13-4.13m4.13-20.644a4.129,4.129,0,1,1-4.13,4.13,4.135,4.135,0,0,1,4.13-4.13" transform="translate(0 0)" fill="#212529"/><path d="M22.8,29.591H55.827a4.129,4.129,0,1,0,0-8.257H22.8a4.129,4.129,0,1,0,0,8.257" transform="translate(10.236 11.699)" fill="#e9c866"/></g></svg>