<svg xmlns="http://www.w3.org/2000/svg" xmlns:xlink="http://www.w3.org/1999/xlink" width="104.728" height="96.934" viewBox="0 0 104.728 96.934"><defs><clipPath id="a"><rect width="104.728" height="96.934" fill="none"/></clipPath></defs><g clip-path="url(#a)"><path d="M79.813,20.888A20.887,20.887,0,1,1,58.926,0,20.888,20.888,0,0,1,79.813,20.888" transform="translate(-19.347)" fill="#e9c866"/><path d="M145.838,25.3H88.645V36.245H96.6v3.587l.711-.179,7.9,2.054,7.9-2.054,7.9,2.054,7.894-2.054,7.893,2.054,7.055-1.836,5.968-3.626V30.276Z" transform="translate(-45.088 -12.87)" fill="#e9c866"/><path d="M64.213,38.392a3.979,3.979,0,1,1-3.978-3.979,3.979,3.979,0,0,1,3.978,3.979" transform="translate(-28.614 -17.504)" fill="#fff"/><path d="M64.213,38.392a3.979,3.979,0,1,1-3.978-3.979A3.979,3.979,0,0,1,64.213,38.392Z" transform="translate(-28.614 -17.504)" fill="none" stroke="#212529" stroke-linecap="round" stroke-linejoin="round" stroke-width="5"/><line x2="45.754" transform="translate(58.477 20.39)" fill="none" stroke="#212529" stroke-linecap="round" stroke-width="5"/><path d="M112.211,78.867a7.559,7.559,0,0,0-5.378-2.238H99.208" transform="translate(-50.461 -38.976)" fill="none" stroke="#212529" stroke-width="8.322" stroke-dasharray="7.906 7.906"/><path d="M40.916,58.575H12.884a8.722,8.722,0,1,1,0-17.444h3.2" transform="translate(-2.116 -20.921)" fill="none" stroke="#212529" stroke-linecap="round" stroke-linejoin="round" stroke-width="5" stroke-dasharray="8.837 8.837"/><path d="M71.5,121.369a2.688,2.688,0,0,1-2.688,2.689H63.435a2.689,2.689,0,1,1,0-5.378h5.378a2.688,2.688,0,0,1,2.688,2.689" transform="translate(-30.897 -60.365)" fill="#e9c866"/><path d="M192.47,121.369a2.689,2.689,0,0,1-2.689,2.689H184.4a2.689,2.689,0,0,1,0-5.378h5.38a2.689,2.689,0,0,1,2.689,2.689" transform="translate(-92.426 -60.365)" fill="#e9c866"/><path d="M125.343,100.883a3.159,3.159,0,0,0-2.753-1.918H84.233a3.158,3.158,0,0,0-2.752,1.918l-5.736,15.552a1.333,1.333,0,0,0,1.337,1.918h52.66a1.334,1.334,0,0,0,1.337-1.918Z" transform="translate(-38.466 -50.337)" fill="none"/><path d="M125.343,100.883a3.159,3.159,0,0,0-2.753-1.918H84.233a3.158,3.158,0,0,0-2.752,1.918l-5.736,15.552a1.333,1.333,0,0,0,1.337,1.918h52.66a1.334,1.334,0,0,0,1.337-1.918Z" transform="translate(-38.466 -50.337)" fill="none" stroke="#2b3881" stroke-miterlimit="10" stroke-width="1"/><path d="M125.343,100.883a3.159,3.159,0,0,0-2.753-1.918H84.233a3.158,3.158,0,0,0-2.752,1.918l-5.736,15.552a1.333,1.333,0,0,0,1.337,1.918h52.66a1.334,1.334,0,0,0,1.337-1.918Z" transform="translate(-38.466 -50.337)" fill="none" stroke="#212529" stroke-linecap="round" stroke-linejoin="round" stroke-width="5"/><path d="M6.58,0h0a6.581,6.581,0,0,1,6.581,6.581V21.015A6.581,6.581,0,0,1,6.58,27.6h0A6.58,6.58,0,0,1,0,21.016V6.58A6.58,6.58,0,0,1,6.58,0Z" transform="translate(30.911 69.338)" fill="#e9c866"/><path d="M6.58,0h0a6.581,6.581,0,0,1,6.581,6.581V21.015A6.581,6.581,0,0,1,6.58,27.6h0A6.58,6.58,0,0,1,0,21.016V6.58A6.58,6.58,0,0,1,6.58,0Z" transform="translate(85.819 69.338)" fill="#e9c866"/><path d="M124.019,127.97a6.275,6.275,0,0,0-3.577-1.354h-47a6.272,6.272,0,0,0-3.577,1.354l-5.426,4.793a5.179,5.179,0,0,0-1.532,3.4v13.664a2.05,2.05,0,0,0,2.044,2.044h63.982a2.05,2.05,0,0,0,2.044-2.044V136.161a5.183,5.183,0,0,0-1.532-3.4Z" transform="translate(-31.997 -64.401)" fill="#ffe3c2"/><path d="M124.019,127.97a6.275,6.275,0,0,0-3.577-1.354h-47a6.272,6.272,0,0,0-3.577,1.354l-5.426,4.793a5.179,5.179,0,0,0-1.532,3.4v13.664a2.05,2.05,0,0,0,2.044,2.044h63.982a2.05,2.05,0,0,0,2.044-2.044V136.161a5.183,5.183,0,0,0-1.532-3.4Z" transform="translate(-31.997 -64.401)" fill="none" stroke="#2b3881" stroke-miterlimit="10" stroke-width="1"/><path d="M124.019,127.97a6.275,6.275,0,0,0-3.577-1.354h-47a6.272,6.272,0,0,0-3.577,1.354l-5.426,4.793a5.179,5.179,0,0,0-1.532,3.4v13.664a2.05,2.05,0,0,0,2.044,2.044h63.982a2.05,2.05,0,0,0,2.044-2.044V136.161a5.183,5.183,0,0,0-1.532-3.4Z" transform="translate(-31.997 -64.401)" fill="none" stroke="#212529" stroke-linecap="round" stroke-linejoin="round" stroke-width="5"/><path d="M132.548,170.71v-3.985a3.067,3.067,0,0,0-3.067-3.067H96.77a3.068,3.068,0,0,0-3.067,3.067v3.985Z" transform="translate(-47.66 -83.241)" fill="#fff"/><path d="M132.548,170.71v-3.985a3.067,3.067,0,0,0-3.067-3.067H96.77a3.068,3.068,0,0,0-3.067,3.067v3.985Z" transform="translate(-47.66 -83.241)" fill="none" stroke="#212529" stroke-linecap="round" stroke-linejoin="round" stroke-width="5"/><line x2="5.453" transform="translate(35.82 81.438)" fill="none" stroke="#212529" stroke-width="8.322"/><line x2="5.453" transform="translate(89.317 81.438)" fill="none" stroke="#212529" stroke-width="8.322"/><path d="M131.718,146.8c0,1.412-.813,2.556-1.815,2.556H107.638c-1,0-1.816-1.144-1.816-2.556s.813-2.556,1.816-2.556H129.9c1,0,1.815,1.144,1.815,2.556" transform="translate(-53.825 -73.366)" fill="#e9c866"/><path d="M83.647,146.8c-.983-1.411-2.544-2.556-3.486-2.556H73a2.556,2.556,0,0,0,0,5.111h9.024c1.881,0,2.607-1.144,1.625-2.556" transform="translate(-35.83 -73.366)" fill="#e9c866"/><path d="M166.578,146.8c.983-1.411,2.543-2.556,3.486-2.556h7.164a2.556,2.556,0,0,1,0,5.111H168.2c-1.88,0-2.607-1.144-1.625-2.556" transform="translate(-84.505 -73.366)" fill="#e9c866"/></g></svg>