<svg xmlns="http://www.w3.org/2000/svg" xmlns:xlink="http://www.w3.org/1999/xlink" width="99" height="99" viewBox="0 0 99 99"><defs><clipPath id="a"><rect width="99" height="99" transform="translate(0 0.095)" fill="none"/></clipPath></defs><g transform="translate(0 -0.096)"><g clip-path="url(#a)"><path d="M59.131,34.708A29.084,29.084,0,0,1,34.709,59.13s1,8.2,1.192,8.169A37.382,37.382,0,0,0,67.3,35.9c.028-.2-8.169-1.194-8.169-1.194" transform="translate(19.033 19.033)" fill="#e9c866"/><path d="M8.242,39.641c-.028.2,8.169,1.194,8.169,1.194A29.088,29.088,0,0,1,40.834,16.411L39.641,8.242a37.386,37.386,0,0,0-31.4,31.4" transform="translate(4.52 4.52)" fill="#e9c866"/><path d="M16.411,34.708s-8.2,1-8.169,1.194a37.382,37.382,0,0,0,31.4,31.4c.2.029,1.192-8.169,1.192-8.169A29.085,29.085,0,0,1,16.411,34.708" transform="translate(4.52 19.033)" fill="#e9c866"/><path d="M59.131,40.835s8.2-1,8.169-1.194a37.382,37.382,0,0,0-31.4-31.4l-1.192,8.169A29.085,29.085,0,0,1,59.131,40.835" transform="translate(19.033 4.52)" fill="#e9c866"/><path d="M96.419,45.682,65.141,33.956,53.416,2.677a4.132,4.132,0,0,0-7.734,0L33.956,33.956,2.679,45.682a4.131,4.131,0,0,0,0,7.734L33.956,65.141,45.682,96.419a4.132,4.132,0,0,0,7.734,0L65.141,65.141,96.419,53.416a4.132,4.132,0,0,0,0-7.734M49.548,15.888l7.587,20.236-7.587,7.585-7.585-7.585Zm-33.66,33.66,20.236-7.585,7.587,7.585-7.587,7.587Zm33.66,33.662L41.962,62.974l7.585-7.587,7.587,7.587ZM62.974,57.135l-7.587-7.587,7.587-7.585,20.236,7.585Z" fill="#212529"/></g></g></svg>