<svg xmlns="http://www.w3.org/2000/svg" xmlns:xlink="http://www.w3.org/1999/xlink" width="99.096" height="90.838" viewBox="0 0 99.096 90.838"><defs><clipPath id="a"><rect width="99.096" height="90.838" fill="none"/></clipPath></defs><g clip-path="url(#a)"><path d="M78.451,16.516a36.946,36.946,0,0,0-22.905,7.959A37.409,37.409,0,0,0,20.644,0,20.67,20.67,0,0,0,0,20.646,37.2,37.2,0,0,0,37.161,57.807a20.619,20.619,0,0,0,4.492-.536,20.457,20.457,0,0,0,3.766,8.665V86.709a4.13,4.13,0,0,0,8.259,0V72.572a20.485,20.485,0,0,0,8.257,1.75A37.2,37.2,0,0,0,99.1,37.161,20.669,20.669,0,0,0,78.451,16.516M8.257,20.646A12.4,12.4,0,0,1,20.644,8.259,29.053,29.053,0,0,1,48.908,31.228a36.939,36.939,0,0,0-7.228,17.356,12.305,12.305,0,0,1-4.52.965,28.935,28.935,0,0,1-28.9-28.9M61.935,66.064A12.4,12.4,0,0,1,49.548,53.677a28.936,28.936,0,0,1,28.9-28.9A12.4,12.4,0,0,1,90.838,37.161a28.936,28.936,0,0,1-28.9,28.9" transform="translate(0 0)" fill="#212529"/><path d="M46.8,27.877l-8.257,8.257a4.129,4.129,0,1,0,5.839,5.839l8.257-8.257A4.129,4.129,0,1,0,46.8,27.877" transform="translate(20.473 14.624)" fill="#e9c866"/><path d="M23.048,17.21a4.129,4.129,0,1,0-5.839,5.839l8.257,8.257a4.129,4.129,0,0,0,5.839-5.839Z" transform="translate(8.774 8.774)" fill="#e9c866"/></g></svg>