<svg xmlns="http://www.w3.org/2000/svg" xmlns:xlink="http://www.w3.org/1999/xlink" width="119.861" height="120.06" viewBox="0 0 119.861 120.06"><defs><clipPath id="a"><rect width="98.823" height="99.096" fill="#e9c866"/></clipPath></defs><g transform="translate(23.973) rotate(14)"><g clip-path="url(#a)"><path d="M33.375,29.842a4.127,4.127,0,0,1-4.13-4.13V17.456a4.13,4.13,0,1,1,8.259,0v8.257a4.127,4.127,0,0,1-4.13,4.13" transform="translate(16.037 7.308)" fill="#e9c866"/><path d="M44.042,27.761a4.128,4.128,0,0,1-4.13-4.13V13.724a4.13,4.13,0,1,1,8.259,0v9.908a4.128,4.128,0,0,1-4.13,4.13" transform="translate(21.887 5.261)" fill="#e9c866"/><path d="M22.708,27.761a4.128,4.128,0,0,1-4.13-4.13V13.724a4.13,4.13,0,0,1,8.259,0v9.908a4.128,4.128,0,0,1-4.13,4.13" transform="translate(10.188 5.261)" fill="#e9c866"/><path d="M95.988,7.192A16.57,16.57,0,0,0,82.1,0,16.8,16.8,0,0,0,66.8,10.555,16.505,16.505,0,0,1,51.581,20.646H47.242A16.506,16.506,0,0,1,32.02,10.557,16.89,16.89,0,0,0,16.416,0,16.427,16.427,0,0,0,2.835,7.192a16.244,16.244,0,0,0-1.712,15.1A49.28,49.28,0,0,0,24.638,48.258V63.5a10.243,10.243,0,0,0,3.029,7.3l8.753,8.756a2.038,2.038,0,0,1,.605,1.455v7.762A10.334,10.334,0,0,0,47.348,99.1h4.128A10.334,10.334,0,0,0,61.8,88.774V81.012a2.04,2.04,0,0,1,.609-1.459L71.154,70.8a10.24,10.24,0,0,0,3.032-7.3V48.258A49.288,49.288,0,0,0,97.7,22.29a16.249,16.249,0,0,0-1.714-15.1M65.928,63.5a2.038,2.038,0,0,1-.61,1.459l-8.745,8.751a10.24,10.24,0,0,0-3.032,7.3v7.762a2.068,2.068,0,0,1-2.066,2.064H47.348a2.068,2.068,0,0,1-2.066-2.064V81.012a10.248,10.248,0,0,0-3.027-7.3L33.5,64.959A2.04,2.04,0,0,1,32.9,63.5V51.578c1.355.4,2.734.74,4.13,1.03v5.2A12.447,12.447,0,0,0,49.412,70.194,12.4,12.4,0,0,0,61.8,57.807v-5.2c1.4-.29,2.776-.626,4.13-1.03ZM45.282,53.6c.653.026,1.3.074,1.96.074h4.339c.658,0,1.307-.048,1.96-.074v4.2a4.133,4.133,0,0,1-4.13,4.128,4.041,4.041,0,0,1-2.943-1.263,3.971,3.971,0,0,1-1.186-2.864ZM90.016,19.266A41.057,41.057,0,0,1,51.581,45.42H47.242A41.059,41.059,0,0,1,8.807,19.266a7.881,7.881,0,0,1,.852-7.426,8.225,8.225,0,0,1,7.064-3.581,8.467,8.467,0,0,1,7.694,5.514A24.746,24.746,0,0,0,47.242,28.9h4.339A24.745,24.745,0,0,0,74.407,13.771a8.558,8.558,0,0,1,8-5.512,8.076,8.076,0,0,1,6.759,3.581,7.885,7.885,0,0,1,.85,7.426" transform="translate(0)" fill="#212529"/></g></g></svg>