<svg xmlns="http://www.w3.org/2000/svg" xmlns:xlink="http://www.w3.org/1999/xlink" width="99.096" height="66.064" viewBox="0 0 99.096 66.064"><defs><clipPath id="a"><rect width="99.096" height="66.064" fill="none"/></clipPath></defs><g clip-path="url(#a)"><path d="M75.475,26.7a66.062,66.062,0,0,0-62.176,0L9.411,19.412a74.324,74.324,0,0,1,69.951,0Z" transform="translate(5.161 5.85)" fill="#e9c866"/><path d="M57.807,0a4.129,4.129,0,1,0,0,8.257A33.05,33.05,0,0,1,86.729,25.367a16.324,16.324,0,0,0-4.148-.593H69.486A15.82,15.82,0,0,0,54.074,37.161h-9.05A15.82,15.82,0,0,0,29.611,24.774H16.516a16.336,16.336,0,0,0-4.15.593A33.055,33.055,0,0,1,41.29,8.257,4.129,4.129,0,1,0,41.29,0,41.339,41.339,0,0,0,0,41.29v8.257A16.534,16.534,0,0,0,16.516,66.064h3.422a15.716,15.716,0,0,0,11.176-4.63l9.671-9.677a15.625,15.625,0,0,0,3.806-6.339h9.914a15.635,15.635,0,0,0,3.8,6.339l9.676,9.677a15.709,15.709,0,0,0,11.175,4.63h3.422A16.533,16.533,0,0,0,99.1,49.548V41.29A41.337,41.337,0,0,0,57.807,0M34.95,45.918,25.279,55.6a7.513,7.513,0,0,1-5.34,2.21H16.516a8.267,8.267,0,0,1-8.257-8.257V41.29a8.268,8.268,0,0,1,8.257-8.259H29.611A7.549,7.549,0,0,1,34.95,45.918m55.888,3.629a8.267,8.267,0,0,1-8.257,8.257H79.159A7.507,7.507,0,0,1,73.82,55.6l-9.676-9.677a7.55,7.55,0,0,1,5.342-12.887H82.581a8.268,8.268,0,0,1,8.257,8.259Z" transform="translate(0 0)" fill="#212529"/></g></svg>