<svg xmlns="http://www.w3.org/2000/svg" xmlns:xlink="http://www.w3.org/1999/xlink" width="99.096" height="90.838" viewBox="0 0 99.096 90.838"><defs><clipPath id="a"><rect width="99.096" height="90.838" fill="none"/></clipPath></defs><g clip-path="url(#a)"><path d="M94.968,0a4.128,4.128,0,0,0-4.13,4.13v.105A20.445,20.445,0,0,0,78.451,0H20.646A20.442,20.442,0,0,0,8.259,4.235V4.13A4.13,4.13,0,1,0,0,4.13V86.709a4.13,4.13,0,0,0,8.259,0V20.644A12.4,12.4,0,0,1,20.646,8.257,12.368,12.368,0,0,0,28.9,19.884V61.935h8.257V19.884A12.366,12.366,0,0,0,45.42,8.257h8.257a12.368,12.368,0,0,0,8.257,11.627V61.935h8.259V19.884A12.367,12.367,0,0,0,78.451,8.257,12.4,12.4,0,0,1,90.838,20.644V86.709a4.129,4.129,0,1,0,8.257,0V4.13A4.127,4.127,0,0,0,94.968,0M33.033,12.387a4.133,4.133,0,0,1-4.13-4.13h8.257a4.133,4.133,0,0,1-4.128,4.13m33.031,0a4.134,4.134,0,0,1-4.13-4.13h8.259a4.134,4.134,0,0,1-4.13,4.13" transform="translate(0 0)" fill="#212529"/><path d="M66.407,57.978H20.989a10.322,10.322,0,1,1,0-20.644H66.407a10.322,10.322,0,1,1,0,20.644M20.989,45.591a2.065,2.065,0,0,0,0,4.13H66.407a2.065,2.065,0,1,0,0-4.13Z" transform="translate(5.849 20.473)" fill="#e9c866"/></g></svg>