<svg xmlns="http://www.w3.org/2000/svg" xmlns:xlink="http://www.w3.org/1999/xlink" width="99.096" height="82.579" viewBox="0 0 99.096 82.579"><defs><clipPath id="a"><rect width="99.096" height="82.579" fill="none"/></clipPath></defs><g clip-path="url(#a)"><path d="M97.383,51.679,79.862,16.641a10.811,10.811,0,0,0-19.338,0L50,37.691a2.55,2.55,0,0,1-4.085.661l-8-8a10.858,10.858,0,0,0-7.646-3.173H27.9a10.8,10.8,0,0,0-8.305,3.89l-15.831,19A16.253,16.253,0,0,0,16.255,76.73H82.842A16.271,16.271,0,0,0,99.1,60.477V58.948a16.392,16.392,0,0,0-1.712-7.27M16.255,68.472a8,8,0,0,1-6.141-13.116l15.826-19a2.556,2.556,0,0,1,1.963-.918h2.363a2.551,2.551,0,0,1,1.8.749l6.3,6.3L64.355,68.472Zm74.583-8a8.006,8.006,0,0,1-8,8H76.031L53.287,45.728a10.764,10.764,0,0,0,4.1-4.345L67.912,20.338a2.645,2.645,0,0,1,4.565,0L89.991,55.365a8.025,8.025,0,0,1,.847,3.583Z" transform="translate(0 5.849)" fill="#212529"/><path d="M31.054,24.774A12.387,12.387,0,1,0,18.667,12.387,12.4,12.4,0,0,0,31.054,24.774m0-16.516a4.129,4.129,0,1,1-4.13,4.13,4.134,4.134,0,0,1,4.13-4.13" transform="translate(10.236 0)" fill="#e9c866"/></g></svg>