<svg xmlns="http://www.w3.org/2000/svg" xmlns:xlink="http://www.w3.org/1999/xlink" width="106.567" height="96.937" viewBox="0 0 106.567 96.937"><defs><clipPath id="a"><rect width="106.567" height="96.937" fill="#5cfaa9" stroke="#5cfaa9" stroke-linecap="round" stroke-linejoin="round" stroke-width="7"/></clipPath></defs><g clip-path="url(#a)"><path d="M61.648,67.211C63.229,53.29,69.679,40.74,79.569,32.773L84.132,29.1,88.7,32.773c9.808,7.9,16.232,20.307,17.881,34.089" transform="translate(-30.85 -14.561)" fill="none" stroke="#212529" stroke-linecap="round" stroke-linejoin="round" stroke-width="7"/><path d="M75.451,83.287c0,14.865,6.208,27.933,15.59,35.49,9.383-7.557,15.59-20.625,15.59-35.49s-6.207-27.933-15.59-35.49c-9.382,7.557-15.59,20.625-15.59,35.49" transform="translate(-37.757 -23.919)" fill="#e9c866"/><path d="M18.436,124.918c10.511,10.511,24.141,15.362,36.118,14.071C55.845,127.011,51,113.381,40.484,102.87S16.343,87.508,4.365,88.8c-1.291,11.979,3.56,25.608,14.072,36.119" transform="translate(-2.082 -44.335)" fill="none" stroke="#707070" stroke-linecap="round" stroke-linejoin="round" stroke-width="7"/><path d="M18.436,124.918c10.511,10.511,24.141,15.362,36.118,14.071C55.845,127.011,51,113.381,40.484,102.87S16.343,87.508,4.365,88.8C3.074,100.777,7.925,114.406,18.436,124.918Z" transform="translate(-2.082 -44.335)" fill="none" stroke="#212529" stroke-linecap="round" stroke-linejoin="round" stroke-width="7"/><path d="M54.768,140.763c-9.083-.664-18.3-5.274-25.6-12.877-7.339-7.643-11.75-17.276-12.377-26.649,9.083.663,18.3,5.273,25.605,12.878,7.34,7.641,11.751,17.275,12.376,26.648" transform="translate(-8.401 -50.661)" fill="#e9c866"/><path d="M122.146,102.871c-10.51,10.513-15.362,24.142-14.073,36.119,11.979,1.291,25.61-3.56,36.118-14.072s15.363-24.14,14.073-36.118c-11.979-1.291-25.608,3.561-36.118,14.071" transform="translate(-53.981 -44.336)" fill="none" stroke="#707070" stroke-linecap="round" stroke-linejoin="round" stroke-width="7"/><path d="M122.146,102.871c-10.51,10.513-15.362,24.142-14.073,36.119,11.979,1.291,25.61-3.56,36.118-14.072s15.363-24.14,14.073-36.118C146.286,87.509,132.657,92.361,122.146,102.871Z" transform="translate(-53.981 -44.336)" fill="none" stroke="#212529" stroke-linecap="round" stroke-linejoin="round" stroke-width="7"/><path d="M120.5,140.764c.626-9.372,5.037-19.006,12.378-26.649,7.3-7.6,16.52-12.213,25.6-12.876-.625,9.373-5.036,19.007-12.377,26.648-7.3,7.6-16.521,12.214-25.6,12.877" transform="translate(-60.3 -50.662)" fill="#e9c866"/><path d="M80.17,100.7a50.969,50.969,0,0,0-3.639-15.7C70.963,71.226,60.312,61.435,48.782,57.943c-5.869,10.522-6.728,24.963-1.161,38.746s16.219,23.574,27.749,27.066" transform="translate(-21.959 -28.996)" fill="none" stroke="#212529" stroke-linecap="round" stroke-linejoin="round" stroke-width="7"/><path d="M96.749,101.063A50.9,50.9,0,0,1,100.41,85.01c5.568-13.782,16.219-23.574,27.749-27.065,5.869,10.521,6.728,24.963,1.16,38.745s-16.219,23.573-27.75,27.066" transform="translate(-48.415 -28.997)" fill="none" stroke="#212529" stroke-linecap="round" stroke-linejoin="round" stroke-width="7"/><path d="M21.011,87.723q0-1.045.05-2.079" transform="translate(-10.514 -42.858)" fill="none" stroke="#2b3881" stroke-linecap="round" stroke-width="7"/><path d="M21.922,40.686a42.791,42.791,0,0,1,84.915,2.084" transform="translate(-10.97 -2.082)" fill="none" stroke="#e9c866" stroke-linecap="round" stroke-linejoin="round" stroke-width="7" stroke-dasharray="8.409 8.409"/><path d="M192.2,85.644q.049,1.033.049,2.079" transform="translate(-96.181 -42.858)" fill="none" stroke="#2b3881" stroke-linecap="round" stroke-width="7"/></g></svg>